<svg xmlns="http://www.w3.org/2000/svg" width="2000" height="425" class="img-fluid" style="transform:none;transform-origin:50% 50%0;cursor:move;transition:none" viewBox="0 0 20000 4250">
  <path d="M16310 3290c-328-31-512-160-610-427-67-187-96-420-87-722 11-384 84-640 227-795 136-147 315-209 600-209 564 1 791 273 825 988 8 154-7 399-31 529-83 443-286 618-739 639-55 3-138 1-185-3zm320-211c304-65 412-315 397-923-12-518-116-727-397-803-102-27-312-24-410 6-96 30-147 60-205 122-75 80-123 208-156 414-18 111-18 542 0 660 55 360 176 499 471 538 56 8 240-1 300-14zM5201 3233c-33-124-541-2068-541-2070s53-2 117-1l116 3 233 915c128 503 238 932 244 953l11 37h175l243-952c134-524 244-954 246-956 1-1 54-1 116 0l114 3-275 1052-275 1053h-514l-10-37zm1155 10c4-15 134-489 289-1053l281-1025 251-3 251-2 11 32c5 18 134 487 286 1042s279 1015 282 1023c4 11-14 13-107 11l-113-3-76-270-76-270-456-3-455-2-64 227c-34 126-69 249-77 276l-14 47h-219l6-27zm1223-735c0-7-71-267-157-578l-157-565-85-3-86-3-157 569c-86 312-157 574-157 580 0 9 99 12 400 12 314 0 400-3 399-12zm771-293V1160h230v1900h930v210H8350V2215zm1460 0V1160h230v2110h-230V2215zm750 0V1160h378c508 1 608 12 757 84 163 80 278 234 339 456 46 164 65 449 47 677-34 424-153 674-381 801-139 77-263 92-782 92h-358V2215zm865 840c96-21 166-58 229-125 138-145 200-375 199-745 0-475-107-716-353-797-60-20-90-22-387-26l-323-4v1712h283c210 0 300-4 352-15zm881 188c4-15 134-489 289-1053l281-1025 251-3 251-2 11 32c5 18 134 487 286 1042s279 1015 282 1023c4 11-14 13-107 11l-113-3-76-270-76-270-456-3-455-2-64 227c-34 126-69 249-77 276l-14 47h-219l6-27zm1223-735c0-7-71-267-157-578l-157-565-85-3-86-3-157 569c-86 312-157 574-157 580 0 9 99 12 400 12 314 0 400-3 399-12zm1051-188v-950h-650v-210h1520v210h-640v1900h-230v-950zm3120-106V1158l463 5c522 5 552 8 695 78 95 46 172 116 215 196 61 114 90 320 68 487-32 237-139 390-327 465-29 12-48 25-46 33 2 7 91 198 198 423 107 226 194 414 194 418s-55 6-122 5l-121-3-190-402-190-403h-607v810h-230V2214zm957 23c176-58 258-194 258-427 0-235-77-364-254-422-61-20-90-22-398-26l-333-4v903l338-3c283-4 345-7 389-21z" style="transform:none"/>
  <g fill="#06C" style="transform:none">
    <path d="M3558 3653c-208-208-380-385-383-393-4-13-19-9-86 23-85 40-222 80-322 92-43 6-57 11-53 21 12 31-268 8-398-33-376-118-648-424-722-811-19-101-18-342 2-440 46-223 131-381 293-542 105-104 147-133 161-111 6 11 21 6 67-22 282-172 663-191 966-49 232 109 429 309 523 533 66 157 79 224 78 419-1 193-12 254-75 405-32 78-131 238-163 264-16 13 14 46 353 385 203 204 375 384 380 399 16 42-6 82-92 165-123 118-81 142-529-305zm-693-478c340-99 589-381 646-730 39-243-62-525-258-717-114-113-204-169-349-217-168-56-294-60-468-15-441 114-739 591-637 1018 78 325 333 586 651 666 106 27 123 29 230 25 63-3 125-13 185-30z"/>
    <path d="M2190 2983c2-219 132-398 325-448 67-17 199-19 264-4 123 28 234 117 291 233 29 58 35 82 38 157l4 89h-922v-27zm335-537c-225-56-360-271-327-520 12-87 53-183 103-241 48-55 138-110 213-130 89-24 248-17 326 14 117 47 221 159 255 274 20 69 20 237-1 308-45 150-177 269-334 299-69 13-173 11-235-4z"/>
  </g>
  <path fill="#9BC53D" d="M335 1282c-165-79-147-305 28-362 153-49 296 130 221 275-45 87-162 128-249 87zm2468-693c-71-21-110-109-77-175 25-50 61-75 111-76 75-1 133 54 133 127 0 90-80 150-167 124z" style="transform:none"/>
  <path fill="#33C0DB" d="M470 4071c-84-26-152-95-177-180-11-38-14-78-10-135 4-74 31-157 286-901 356-1038 362-1055 379-1055 7 0 59 18 115 40 112 44 249 117 432 232l120 75-3 149c-7 301 67 504 271 747 33 39 37 49 27 67-14 26 11 73 53 98 26 16 30 16 58-1 30-16 32-16 57 2 51 35 187 99 268 124 94 30 260 50 354 44 36-2 53-2 38 0-16 2-28 6-28 8s24 70 52 152c50 141 53 153 52 248 0 118-21 174-86 230-81 69-18 65-1182 64-578 0-1062-4-1076-8zm886-445c42-42 43-65 3-111-36-40-64-44-103-14-57 45-58 103-3 138 44 29 64 26 103-13zm-126-741c35-18 67-54 85-98 15-35 14-41-3-80-37-81-110-124-174-103-53 19-93 55-110 102-13 34-14 46-3 78 17 49 50 84 100 107 40 18 59 17 105-6zM1110 555c0-12-15-15-78-15-113 0-112 1-112-191 0-85 4-159 8-166 4-6 20-17 35-22 40-15 1132-15 1175 0 45 15 54 57 50 211-4 161-9 168-115 168-58 0-73 3-73 15 0 13-56 15-445 15s-445-2-445-15z" style="transform:none"/>
  <path fill="#B5E8F2" d="M2710 4027c0-2 15-16 33-33l32-29-29 33c-28 30-36 37-36 29zM283 3780c0-47 2-66 4-42 2 23 2 61 0 85-2 23-4 4-4-43zm958-102c-24-12-46-30-49-40-2-10-8-18-13-18s-6-7-3-15c4-8 2-15-3-15-16 0-9-54 10-72 9-10 19-18 22-18s5 25 5 55c0 41 4 55 14 55 8 0 16 5 18 12 3 7 32 14 76 16 76 4 87 12 50 36-42 26-80 28-127 4zm113-153c-3-14-12-25-20-25s-14-4-14-10c0-5-16-10-35-10-24 0-35-5-35-15 0-8 7-15 15-15s15-5 15-12c0-9 3-9 12 0 7 7 24 12 39 12 18 0 37 11 58 35 40 46 40 65 1 65-23 0-31-5-36-25zm555-307-34-33 34-3c18-2 38 1 44 7 14 14 74 14 79 0 2-7 13-3 27 8l24 20-24 16c-14 10-43 17-70 17-39 0-52-5-80-32zm616 15c-233-31-473-176-611-370-113-156-193-430-169-573 8-48 18-49 89-16 172 81 262 116 301 116 11 0 25 4 31 10 5 5 67 20 136 32l127 23 21 53c11 30 20 59 20 66s-24 29-54 49c-104 69-174 185-189 314l-5 43 196 2 195 3 34 100c18 54 33 112 33 127 0 28 0 28-62 27-35-1-76-4-93-6zm-1427-310c-63-25-50-44 30-44 37 1 86-2 110-5 38-6 42-9 42-34 0-48 9-60 46-60h34l-15 36c-42 101-150 148-247 107zm-108-120c-1-5-5-27-9-50-5-24-4-43 0-43 5 0 9-7 9-15s7-15 15-15c12 0 15 14 15 65s-3 65-15 65c-8 0-15-3-15-7zm14-151c0-10 11-23 23-29 21-10 23-9 23 18 0 24-4 29-23 29-15 0-23-6-23-18zm106-66c0-20 78-35 107-21 44 20 26 35-42 35-50 0-65-3-65-14zm325-502c-170-107-274-162-395-211-99-40-131-66-97-78 28-11 334 119 345 147 2 4 12 8 23 8s22 7 25 15c4 8 15 15 25 15 11 0 22 7 25 15 4 8 15 15 26 15s22 8 25 19c3 12 17 21 40 26 23 4 37 13 40 26 3 10 14 19 24 19 14 0 19 7 19 30 0 17-1 30-2 30-2-1-57-35-123-76zm16-708c-8-9-11-45-9-98l3-83 278-3 277-2v58c0 33 5 74 11 92 9 26 9 34-2 41-8 5-134 9-280 9-217 0-269-3-278-14z" style="transform:none"/>
  <path fill="#C7EBF2" d="M2813 3785c0-38 2-53 4-32 2 20 2 52 0 70-2 17-4 1-4-38zm982-387-370-373 373 370c204 203 372 371 372 372 0 7-31-23-375-369zm-2549 277c-3-8-10-14-15-13-23 7-51-46-51-95 0-42 4-53 34-83s40-34 85-34c28 0 51 4 51 9s9 11 21 14 18 10 14 16c-3 6 2 11 12 11 15 0 16 2 3 10s-12 10 3 10c29 0 24 90-7 127-22 27-30 29-75 26-29-1-51 2-51 7 0 16-17 12-24-5zm690-446c-10-10-23-16-27-13-13 8-39-52-39-89 0-18 6-41 13-50 11-16 18-12 76 39 35 30 74 62 86 70 28 18 23 54-6 47-10-3-19 0-19 6 0 7-8 7-26-1-17-8-28-9-32-1-5 6-14 4-26-8zm710-14c4-8 1-15-6-15-6 0-8-5-4-11 3-6 0-15-7-20-10-6-6-9 14-9 24 0 27 3 27 35 0 24-5 35-15 35-9 0-12-6-9-15zm-50-150c4-10 0-15-12-16-11 0-14-3-6-6 18-7 15-23-5-23-15 0-16-2-3-10s12-10-2-10c-10 0-18-4-18-10 0-5 14-10 30-10 29 0 30 1 30 50 0 28-4 50-10 50-5 0-7-7-4-15zm-1456-140c0-18-16-20-23-2-4 8-8 8-14 2-4-5-15-11-23-13-21-5-59-42-76-74s-19-140-3-171c35-67 91-100 171-99 61 1 100 16 135 54 57 60 73 188 24 188-14 0-14 2-1 10 12 8 12 10-5 10-16 0-17 2-5 10s10 14-14 39c-16 17-33 28-37 25-10-6-89 19-89 28 0 5-9 8-20 8s-20-7-20-15zm1300-335c0-5-8-10-17-11-11 0-13-3-5-6 18-7 15-23-5-23-15 0-16-2-3-10s12-10-2-10c-19 0-25-16-8-22 28-9-18-26-130-46-69-13-129-27-134-32-6-6-20-10-31-10-27 0-112-29-190-65-153-69-165-76-165-96 0-28 27-24 123 21 121 57 305 116 427 138 93 16 105 21 108 40 2 11 12 24 23 27 14 5 19 16 19 45 0 21 3 45 6 54s1 16-5 16-11-4-11-10zm-2280-90v-59l-62-3-63-3-3-62-3-63h131v-130h130v130h131l-3 63-3 62-62 3-63 3v119H160v-60zm1420-326c-19-13-40-28-47-34-7-5-17-10-22-10-6 0-15-9-21-20s-16-17-25-14c-8 4-15 1-15-5s-7-11-15-11-19-9-25-20-17-17-24-14c-8 3-19-3-25-15-7-11-17-18-25-15s-19-4-26-16c-6-11-16-18-21-14-6 3-19-3-30-15-18-19-32-25-51-22-5 0-8-4-8-10 0-5-4-7-10-4-5 3-10 1-10-5s-4-8-10-5c-5 3-10 1-10-5s-4-8-10-5c-5 3-10 1-10-6s-3-9-7-6c-3 4-11 0-18-9-6-9-23-17-38-17-15-1-27-5-27-9s-7-5-15-2c-8 4-15 1-15-6 0-6-4-8-10-5-5 3-10 2-10-4s-7-8-15-5c-8 4-15 1-15-5s-6-8-14-5c-32 12-20-40 64-287l90-261V540h890v685h-525l-3 56c-2 39 1 59 11 68 11 9 79 11 253 8 132-2 247-5 258-8 15-3 23 8 42 63l22 67-47 35c-26 20-79 68-117 108-140 148-227 315-267 514l-12 61-35-23zm1023-881c26-2 67-2 90 0s2 3-48 3c-49 0-68-1-42-3zm-305-235-3-63-62-3-63-3V860h130V740h130v120h120v130h-120v130h-129l-3-62z" style="transform:none"/>
  <path fill="#EBF8FA" d="m3550 3643-375-378 378 375c207 206 377 376 377 377 0 7-32-24-380-374zm-907-435c0-18-5-34-11-36s-8-10-5-18 0-14-6-14-8-7-5-15c4-8 1-15-5-15s-8-7-5-15c4-8 1-15-5-15s-8-7-5-15c4-8 1-15-5-15s-8-7-5-15c4-8 1-15-6-15-6 0-8-5-4-11 3-6 0-15-7-20-10-6-7-9 11-9 24 0 28 8 53 83 15 46 27 93 27 105s5 22 10 22c6 0 10 11 10 25 0 18-5 25-18 25-14 0-19-8-19-32zm67 13c0-14 6-21 20-21 11 0 20-5 20-11s19-9 47-7c35 2 49 7 51 20 3 17-6 20-95 33-39 6-43 5-43-14zm-276-634c-6-7-9-18-6-25 2-6-1-12-7-12s-8-7-5-15c4-8 1-15-6-15-6 0-9-4-5-9 14-23-37-47-136-64-119-20-302-79-429-138-105-49-104-47-69-190 51-204 188-406 352-518l47-32v31c0 19-5 30-14 30-11 0-5 29 26 123 22 67 44 126 48 130 3 4 3 33-1 63-16 116 21 234 105 337 50 61 76 120 76 168 0 18 5 29 13 29 14 0 37 61 37 99 0 23-10 26-26 8zm66-29c0-33 26-49 72-46 30 2 44 8 46 19 2 12-12 20-58 31-57 14-60 14-60-4zM2184 350c0-74 1-105 3-67 2 37 2 97 0 135-2 37-3 6-3-68zm-922-197c159-2 417-2 575 0 159 1 29 2-287 2s-446-1-288-2z" style="transform:none"/>
  <path fill="#FFF" d="m2614 3111-42-131h511l-6-61c-6-68-47-160-96-220-36-43-117-98-181-123-48-19-242-39-250-25-5 6-95 49-105 49-2 0-11-23-20-50-9-28-22-56-28-63-14-14-69-179-62-185 2-2 21 9 42 25 176 139 410 132 568-18 93-88 135-185 135-314 0-92-20-158-71-235-129-193-392-247-587-121-89 58-146 134-182 244-21 67-39 45-92-113-26-79-48-147-48-150 1-3 27-22 58-42 230-149 512-184 777-97 465 154 723 662 573 1129-73 228-233 418-443 527-99 51-216 87-252 78-16-4-29-2-33 5s-34 14-66 17l-59 5-41-131zM393 913c9-2 25-2 35 0 9 3 1 5-18 5s-27-2-17-5z" style="transform:none"/>
</svg>
