<svg xmlns="http://www.w3.org/2000/svg" width="2782" height="425" class="img-fluid" style="transform:none;transform-origin:50% 50%0;cursor:move;transition:none" viewBox="0 0 27820 4250">
  <path d="M6905 3039c-94-9-367-48-370-52-1-1 2-37 8-81l10-79 61 7c370 40 560 47 651 22 171-45 255-164 255-360 0-212-68-266-445-351-316-72-468-162-526-313-28-72-38-265-19-351 42-188 175-307 391-347 136-26 545-8 733 32l28 6-7 82c-4 44-7 81-8 82s-76-8-167-18c-91-11-239-20-330-21-146-2-173 1-235 20-137 43-202 122-212 256-7 93 10 175 48 227 42 58 137 100 356 156 235 60 293 79 386 126 149 77 197 164 204 368 7 202-29 326-128 435-102 111-223 154-449 160-80 2-185 0-235-6zm6130 0c-94-9-367-48-370-52-1-1 2-37 8-81l10-79 61 7c370 40 560 47 651 22 171-45 255-164 255-360 0-212-68-266-445-351-316-72-468-162-526-313-28-72-38-265-19-351 42-188 175-307 391-347 136-26 545-8 733 32l28 6-7 82c-4 44-7 81-8 82s-76-8-167-18c-91-11-239-20-330-21-146-2-173 1-235 20-137 43-202 122-212 256-7 93 10 175 48 227 42 58 137 100 356 156 235 60 293 79 386 126 149 77 197 164 204 368 7 202-29 326-128 435-102 111-223 154-449 160-80 2-185 0-235-6zm7393-9c-211-44-336-163-407-385-48-149-56-229-56-570 0-345 9-423 66-579 71-198 185-306 371-351 138-34 401-30 637 11 134 23 124 14 116 102-4 43-9 79-11 81-1 1-56-5-121-14-154-22-420-31-496-16-142 26-244 105-288 219-57 151-83 433-69 732 18 369 97 528 290 588 79 25 421 24 573-2 60-9 110-16 112-14 1 2 6 39 9 84l7 81-68 12c-257 45-513 53-665 21zm4820 0c-211-44-336-163-407-385-48-149-56-229-56-570 0-345 9-423 66-579 71-198 185-306 371-351 138-34 401-30 637 11 134 23 124 14 116 102-4 43-9 79-11 81-1 1-56-5-121-14-154-22-420-31-496-16-142 26-244 105-288 219-57 151-83 433-69 732 18 369 97 528 290 588 79 25 421 24 573-2 60-9 110-16 112-14 1 2 6 39 9 84l7 81-68 12c-257 45-513 53-665 21zM8100 2090v-940h408c374 0 415 2 486 20 275 70 398 273 383 630-3 69-13 152-22 185-54 203-174 326-370 381-49 14-119 18-372 22l-313 4v638h-200v-940zm868 86c141-65 204-198 203-430-1-178-39-284-129-353-80-61-114-66-444-71l-298-4v893l303-3 302-3 63-29zm752-86v-940h200v1880h-200v-940zm670 1v-942l423 3 422 3 87 31c254 91 380 291 418 669 16 147 8 412-15 545-59 340-207 533-462 602-71 19-112 21-475 25l-398 5v-941zm760 749c213-40 340-221 380-542 17-131 8-467-15-567-48-213-133-328-282-383-53-20-83-22-350-26l-293-4v1532h254c139 0 277-5 306-10zm2881 188c0-2 116-424 257-938l258-935 226-3 226-2 11 32c22 71 501 1826 501 1836 0 8-30 12-95 12h-94l-17-57c-9-32-40-141-69-243l-52-185-409-3-409-2-69 245-68 245h-99c-55 0-99-1-98-2zm1099-682c0-11-249-921-276-1009-5-15-16-17-82-15l-76 3-143 515c-78 283-143 516-143 518 0 1 162 2 360 2 302 0 360-2 360-14zm700-256v-940h368l169 503c94 276 214 634 268 795 53 162 101 290 105 285 4-4 126-362 271-795l263-788h376v1880h-200V1359l-26 3c-26 3-34 25-265 698-132 382-255 741-275 798l-36 102h-224l-275-800c-254-741-276-800-296-800h-23v1670h-200v-940zm2290 0v-940h200v1700h830v180h-1030v-940zm3400 0v-940h200v840h970v-840h200v1880h-200v-860h-970v860h-200v-940zm1840 0v-940h1140v170h-940v660h770v180h-770v690h940v180h-1140v-940zm2980 0v-940h200v872l156-4c129-2 158-6 167-19 7-9 116-203 242-432l230-416 113-1c61 0 112 2 112 5s-119 214-265 470l-265 466 271 447c150 246 279 457 287 470l14 22h-237l-242-403c-134-221-249-411-256-421-12-17-25-17-170-11l-157 8v827h-200v-940zM1020 1580c0-6-55-10-145-10H730l-2-162-3-163-122-3-123-3V910H240V600H0V0h6060v600h-250v310h-240v330h-250v330h-145c-90 0-145 4-145 10 0 7-203 10-590 10h-590v-320h-240l-2-162-3-163-122-3-123-3V300h-430v639l-117 3-118 3-3 163-2 162h-250v320h-710c-467 0-710-3-710-10zm148-502 3-138H990v121c0 66 5 129 11 140 9 18 19 19 87 17l77-3 3-137zm490 0 3-138h-191v123c0 67 4 127 8 133 12 19 34 23 107 21l70-2 3-137zm2672 123c5-11 10-74 10-140V940h-200v128c0 86 4 132 12 140 7 7 43 12 90 12 66 0 79-3 88-19zm464 13c14-5 16-27 16-140V940h-180v133c0 74 3 137 7 140 8 9 136 9 157 1zM940 755V620H750v270h190V755zm480 6c0-125-1-129-22-135-30-7-83-7-130 0l-38 7v257h190V761zm2670-6V620h-190v270h190V755zm490 10c0-125 0-125-26-135-14-6-57-10-95-10h-69v270h190V765zM690 435V300H510v270h180V435zm480 0V300h-84c-67 0-85 3-90 16-3 9-6 69-6 135v119h180V435zm2670 0V300h-180v270h180V435zm498 3-3-133-97-3-98-3v271h201l-3-132z" style="transform:none"/>
  <path fill="#06C" d="M1020 2906c0-1263-1-1335-18-1339-9-3 133-5 316-6 321-1 332 0 332 18 0 11-4 21-8 23-14 5-68 91-80 127-15 44-15 103 0 138 63 145 201 236 308 204 130-39 218-160 208-285-5-58-51-162-79-177-11-5-19-19-19-29 0-19 8-20 215-20h215v-320h250l2-162 3-163 118-3 117-3V270h490v639l123 3 122 3 3 73c2 59 0 72-13 72s-15 92-15 868c0 1042 5 1119 89 1271 54 99 130 156 256 192 80 22 307 18 434-9 57-12 105-22 107-22 6 0 4-199-3-272l-6-68h-172c-196 0-221-7-251-68-18-34-19-73-22-524l-3-488 228-2 228-3 3-187 2-188 283 1c155 1 274 3 265 6-17 4-18 76-18 1339v1334H1020V2906zm2015-436v-895l-217-3-218-2v1800l218-2 217-3v-895z" style="transform:none"/>
  <path fill="#FAFAFA" d="M3995 3434c-105-15-214-64-265-117-41-43-86-125-105-191-40-133-45-265-45-1198v-898h60v210h240v320h650l-2 203-3 202-228 3-228 2 3 458c4 602-14 565 273 561l170-3 7 54c3 30 6 121 7 202l1 147-57 11c-32 6-76 15-98 21-42 11-329 20-380 13zm-1425-964v-930l248 2 247 3v1850l-247 3-248 2v-930zm-841-375c-85-31-155-101-197-198-15-35-16-153 0-198 12-36 64-119 82-131 6-4 97-8 202-8 187 0 192 0 217 24 57 53 94 185 77 275-10 52-38 119-63 151-19 24-99 76-136 88-45 16-137 14-182-3zm-926-532c43-2 110-2 150 0 40 1 5 3-78 3-82 0-115-2-72-3zm4300 0c43-2 110-2 150 0 40 1 5 3-78 3-82 0-115-2-72-3zm700-953c3-12 27-15 133-15l129-1-125 3c-83 3-127 8-133 16-6 9-7 8-4-3zM58 593c34-2 88-2 120 0 31 2 3 3-63 3s-92-1-57-3z" style="transform:none"/>
  <path fill="#50524F" d="m600 1240-125-6 122-2c73-1 124 2 128 8 3 6 5 9 3 8s-59-5-128-8zm371-9c-6-11-11-82-11-165V920H720V600H480V270h239l3 158 3 157 118 3 117 3V446c0-79 3-151 6-160 5-13 25-16 120-16h114v154c0 113 3 157 13 163 6 4 49 6 94 4 45-1 95 0 112 4l31 7v308h240l-2 168-3 167h-113c-89 0-115-3-122-15-5-8-10-81-10-162V920h-240l-2 163-3 162-107 3c-98 2-108 1-117-17zm229-476V600H970v310h230V755zm2922 483c-8-8-12-59-12-165V920h-240V600h-240V270h239l3 158 3 157 118 3 117 3V269l128 3 127 3 3 158 3 157h94c51 0 105 4 119 10l26 10v300h230v165c0 193 12 178-140 173l-95-3-3-162-2-163h-230v146c0 81-5 154-10 165-10 17-22 19-118 19-71 0-112-4-120-12zm238-483V600h-240v310h240V755zm1028 478c34-2 90-2 125 0 34 2 6 3-63 3s-97-1-62-3zM242 753l2-158 3 152 4 152 107 4 107 3-112 2-113 2 2-157zm5445 150 112-4 3-151c2-113 6-152 16-154 7-1 8 0 2 3s-10 64-10 159v154l-117-2-118-2 112-3z" style="transform:none"/>
</svg>
