<svg xmlns="http://www.w3.org/2000/svg" width="2782" height="425" class="img-fluid" style="transform:matrix(1,0,0,1,0,0);transform-origin:50% 50%0;cursor:move;transition:none" viewBox="0 0 27820 4250">
  <path d="M11420 3260c-328-31-512-160-610-427-67-187-96-420-87-722 11-384 84-640 227-795 136-147 315-209 600-209 564 1 791 273 825 988 8 154-7 399-31 529-83 443-286 618-739 639-55 3-138 1-185-3zm320-211c304-65 412-315 397-923-12-518-116-727-397-803-102-27-312-24-410 6-96 30-147 60-205 122-75 80-123 208-156 414-18 111-18 542 0 660 55 360 176 499 471 538 56 8 240-1 300-14zm13210 211c-328-31-512-160-610-427-67-187-96-420-87-722 11-384 84-640 227-795 136-147 315-209 600-209 564 1 791 273 825 988 8 154-7 399-31 529-83 443-286 618-739 639-55 3-138 1-185-3zm320-211c304-65 412-315 397-923-12-518-116-727-397-803-102-27-312-24-410 6-96 30-147 60-205 122-75 80-123 208-156 414-18 111-18 542 0 660 55 360 176 499 471 538 56 8 240-1 300-14zM4580 2185V1130h378c508 1 608 12 757 84 163 80 278 234 339 456 46 164 65 449 47 677-34 424-153 674-381 801-139 77-263 92-782 92h-358V2185zm865 840c96-21 166-58 229-125 138-145 200-375 199-745 0-475-107-716-353-797-60-20-90-22-387-26l-323-4v1712h283c210 0 300-4 352-15zm1105-840V1130h1280v200H6780v740h870v200h-870v770h1050v200H6550V2185zm1690 0V1130h417l298 887c164 489 300 891 304 895 3 4 141-396 305-888l300-894h416v2110h-230V1369l-21 3c-12 2-26 10-31 18-4 8-125 357-269 775-143 418-278 813-301 878l-41 117h-253l-269-782c-378-1104-343-1008-371-1008h-24v1870h-230V2185zm5601 1018c-33-124-541-2068-541-2070s53-2 117-1l116 3 233 915c128 503 238 932 244 953l11 37h175l243-952c134-524 244-954 246-956 1-1 54-1 116 0l114 3-275 1052-275 1053h-514l-10-37zm1155 10c4-15 134-489 289-1053l281-1025 251-3 251-2 11 32c5 18 134 487 286 1042s279 1015 282 1023c4 11-14 13-107 11l-113-3-76-270-76-270-456-3-455-2-64 227c-34 126-69 249-77 276l-14 47h-219l6-27zm1223-735c0-7-71-267-157-578l-157-565-85-3-86-3-157 569c-86 312-157 574-157 580 0 9 99 12 400 12 314 0 400-3 399-12zm771-293V1130h230v1900h930v210h-1160V2185zm1460 0V1130h230v2110h-230V2185zm750 0V1130h378c508 1 608 12 757 84 163 80 278 234 339 456 46 164 65 449 47 677-34 424-153 674-381 801-139 77-263 92-782 92h-358V2185zm865 840c96-21 166-58 229-125 138-145 200-375 199-745 0-475-107-716-353-797-60-20-90-22-387-26l-323-4v1712h283c210 0 300-4 352-15zm881 188c4-15 134-489 289-1053l281-1025 251-3 251-2 11 32c5 18 134 487 286 1042s279 1015 282 1023c4 11-14 13-107 11l-113-3-76-270-76-270-456-3-455-2-64 227c-34 126-69 249-77 276l-14 47h-219l6-27zm1223-735c0-7-71-267-157-578l-157-565-85-3-86-3-157 569c-86 312-157 574-157 580 0 9 99 12 400 12 314 0 400-3 399-12zm1051-188v-950h-650v-210h1520v210h-640v1900h-230v-950zm3120-106V1128l463 5c522 5 552 8 695 78 95 46 172 116 215 196 61 114 90 320 68 487-32 237-139 390-327 465-29 12-48 25-46 33 2 7 91 198 198 423 107 226 194 414 194 418s-55 6-122 5l-121-3-190-402-190-403h-607v810h-230V2184zm957 23c176-58 258-194 258-427 0-235-77-364-254-422-61-20-90-22-398-26l-333-4v903l338-3c283-4 345-7 389-21z" style="transform:none"/>
  <path fill="#33C0DB" d="M500 4111c-84-26-152-95-177-180-11-38-14-78-10-135 4-74 31-157 286-901 345-1007 362-1055 376-1055 25 0 186 63 255 100 41 22 89 47 105 55 17 9 44 24 60 35 17 11 37 23 45 26 8 4 22 13 30 20s26 19 40 26c14 8 55 33 91 56l67 43 5 162c5 182 21 256 85 405 41 95 91 175 152 245 42 47 52 95 30 138-31 56 89 134 130 84 21-25 60-17 159 34 171 87 344 126 510 114 68-5 73-4 69 13-2 13-13 20-36 22-17 2-32 5-32 7s24 70 52 152c50 141 53 153 52 248 0 118-21 174-86 230-81 69-18 65-1182 64-578 0-1062-4-1076-8zm894-452c29-34 32-52 14-75-61-75-84-80-134-30-42 42-43 69-5 107 41 41 90 40 125-2zm-156-724c45-20 82-53 82-75 0-9 9-27 20-40 39-44-16-138-100-174-30-12-41-12-73-1-151 52-154 225-7 289 43 19 34 19 78 1zm2932 889c0-44 18-42 37 4 13 31 12 32-12 32-22 0-25-4-25-36zm-550-1809c0-37 23-50 33-17 2 9 8 25 12 35 6 14 2 17-19 17-23 0-26-4-26-35zm-490-550c0-29 2-30 40-10 40 21 38 35-5 35-31 0-35-3-35-25zM1140 595c0-12-15-15-78-15-113 0-112 1-112-191 0-85 4-159 8-166 4-6 20-17 35-22 40-15 1132-15 1175 0 45 15 54 57 50 211-4 161-9 168-115 168-58 0-73 3-73 15 0 13-56 15-445 15s-445-2-445-15z" style="transform:none"/>
  <g fill="#06C" style="transform:none">
    <path d="M3588 3693c-208-208-380-385-383-393-4-13-19-9-86 23-281 134-641 124-926-26-73-39-84-42-97-29-13 14-19 12-53-13-21-16-61-49-89-74-46-40-51-47-42-67s5-29-30-70c-63-71-113-150-154-246-64-149-80-223-85-403-3-111-9-163-17-170-10-8-10-23 0-75 45-219 132-379 293-540 105-104 147-133 161-111 6 11 21 6 67-22 341-207 790-189 1130 45 143 99 299 287 353 428 12 30 26 63 30 72 5 9 19 54 32 100 20 72 22 106 22 258-1 193-12 255-75 405-32 78-112 210-155 255l-24 26 366 364c215 215 371 379 379 398 21 48 3 82-88 170-123 118-81 142-529-305zm-693-478c340-99 589-381 646-730 39-243-62-525-258-717-114-113-204-169-349-217-168-56-294-60-468-15-441 114-739 591-637 1018 78 325 333 586 651 666 106 27 123 29 230 25 63-3 125-13 185-30z"/>
    <path d="M2220 3023c2-219 132-398 325-448 67-17 199-19 264-4 123 28 234 117 291 233 29 58 35 82 38 157l4 89h-922v-27zm335-537c-225-56-360-271-327-520 12-87 53-183 103-241 48-55 138-110 213-130 89-24 248-17 326 14 117 47 221 159 255 274 20 69 20 237-1 308-45 150-177 269-334 299-69 13-173 11-235-4z"/>
  </g>
  <path fill="#C0EAF2" d="M2740 4067c0-2 15-16 33-33l32-29-29 33c-28 30-36 37-36 29zM313 3820c0-47 2-66 4-42 2 23 2 61 0 85-2 23-4 4-4-43zm2530 5c0-38 2-53 4-32 2 20 2 52 0 70-2 17-4 1-4-38zm982-387-370-373 373 370c204 203 372 371 372 372 0 7-31-23-375-369zm-2540 286c-46-24-64-44-77-85-25-87 58-169 151-148 34 8 85 51 74 63-4 3-1 6 5 6 8 0 12 19 12 51 0 45-4 55-34 85-28 28-40 33-60 28-16-4-26-2-26 5 0 15-9 14-45-5zm663-458c-14-12-31-31-37-43-15-29-14-85 2-106 11-16 18-12 74 37 34 29 76 64 93 76 29 20 30 24 16 38-25 25-116 24-148-2zm607 7c-233-31-473-176-611-370-114-158-189-411-169-572 6-51 8-53 33-48 15 3 73 25 130 51 134 59 266 101 383 121 52 9 104 21 116 27 21 10 63 98 63 132 0 7-24 29-54 49-104 69-174 185-189 314l-5 43 196 2 195 3 34 100c18 54 33 112 33 127 0 28 0 28-62 27-35-1-76-4-93-6zm-1430-312c-105-47-144-179-81-273 83-124 265-109 327 27 22 48 24 108 4 128-8 8-11 17-8 21 4 3 1 6-6 6s-9 5-6 11c10 15-33 59-80 80-51 24-99 24-150 0zm-935-421v-59l-62-3-63-3-3-62-3-63h131v-130h130v130h131l-3 63-3 62-62 3-63 3v119H190v-60zm1381-351c-40-27-76-49-79-49s-19-10-36-23-38-27-46-30c-8-4-28-16-45-27-16-11-43-26-60-35-16-8-67-35-112-59-46-24-83-43-83-41 0 7-145-54-147-62-2-5 37-127 87-272l90-263V580h890v766l29 87 30 86-48 35c-26 20-79 68-117 108-140 148-227 315-267 514l-12 61-74-48zm757-1091-3-63-62-3-63-3V900h130V780h130v120h120v130h-120v130h-129l-3-62z" style="transform:none"/>
  <path fill="#F8FDFD" d="m3580 3683-375-378 378 375c207 206 377 376 377 377 0 7-32-24-380-374zm-936-532-42-131h511l-6-61c-7-82-56-180-122-244-120-118-299-155-455-96-30 12-56 21-56 21-1 0-11-26-23-58-24-68-37-76-141-93-133-20-290-72-462-151-63-29-68-33-68-63 0-51 40-194 75-271 163-357 550-575 931-525 565 75 925 635 752 1171-110 344-426 598-776 626l-77 6-41-131zm116-691c81-15 154-53 215-111 93-88 135-185 135-314 0-92-20-158-71-235-129-193-392-247-587-121-73 48-117 99-154 177-115 247 23 534 287 600 63 16 108 17 175 4zM388 1333c-36-9-20-33 22-33 33 0 40 3 40 20 0 20-20 24-62 13zm2240 0c23-2 59-2 80 0 20 2 1 4-43 4s-61-2-37-4zm-2148-23c0-15 7-20 25-20 15 0 25-6 25-14s11-23 25-34 25-25 25-31 5-11 10-11c6 0 10-25 10-55 0-41 4-55 14-55 36 0 26 114-15 172-22 30-78 68-103 68-9 0-16-8-16-20zm-189-46c-27-35-26-44 4-44 22 0 25 4 25 35 0 19-2 35-4 35-3 0-14-12-25-26zm-41-136c1-68 65-143 143-168 45-14 107-6 107 15 0 11-14 15-55 15-30 0-55 5-55 10 0 6-6 10-12 10-7 1-24 14-38 30-13 17-30 30-37 30-8 0-13 14-13 40 0 33-3 40-20 40-14 0-20-7-20-22zm297-85c-4-3-7-19-7-35 0-28 1-28 21-14 11 8 27 24 35 35 14 20 14 21-14 21-16 0-32-3-35-7zm2301-410c-33-9-19-30 23-36 26-3 46-13 56-26 12-18 63-31 63-15 0 43-89 91-142 77zm-102-99c-9-36 2-84 20-84 10 0 14 14 14 55 0 40-4 55-14 55-8 0-17-12-20-26zm-532-144c0-74 1-105 3-67 2 37 2 97 0 135-2 37-3 6-3-68zm716 30c0-27 2-29 19-19 10 7 23 20 30 30 10 17 8 19-19 19s-30-3-30-30zm-144-10c34-35 124-46 124-15 0 13-28 21-105 32l-40 5 21-22zM1292 193c159-2 417-2 575 0 159 1 29 2-287 2s-446-1-288-2z" style="transform:none"/>
  <path fill="#9BC53D" d="M393 1330c-47-11-79-35-111-82-37-56-37-149-1-202 39-57 93-86 161-86 65 0 100 14 139 57 40 42 49 66 49 128 0 64-14 97-62 141-51 49-103 61-175 44zm2391-734c-30-30-34-40-34-88 0-84 45-128 131-128 35 0 48 6 80 39 34 34 39 44 39 86s-5 52-39 86c-35 35-44 39-91 39-46 0-56-4-86-34z" style="transform:none"/>
</svg>
